# xmcd
#
# Track frame offsets:
# 150
# 16469
# 33268
# 54192
# 83600
# 116040
# 141661
# 162233
# 171376
# 187978
#
# Disc length: 2993 seconds
#
# Revision: 1
# Processed by: cddbd v1.5.2PL0 Copyright (c) Steve Scherf et al.
# Submitted via: CedeCatalogueitor 2.6.0.6 http://personales.ya.com/cdcatalogueitor
#
DISCID=7f0baf0a
DTITLE=Edison Woods - Nest Of Machines
DYEAR=1900
DGENRE=
TTITLE0=Letter To The Garden
TTITLE1=Baby Doll
TTITLE2=The Con Man's Lament
TTITLE3=Sing Swan
TTITLE4=Nest Of Machines
TTITLE5=Last Night I Dreamt I Would Last Forever
TTITLE6=Rose
TTITLE7=Queen
TTITLE8=Bird In Paradise
TTITLE9=Galandrina
EXTD=
EXTT0=
EXTT1=
EXTT2=
EXTT3=
EXTT4=
EXTT5=
EXTT6=
EXTT7=
EXTT8=
EXTT9=
PLAYORDER=
